<svg id="Layer_1" data-name="Layer 1" xmlns="http://www.w3.org/2000/svg" viewBox="0 0 682.38 119.97"><title>cocorobo_logo-latest</title><path d="M218.59,260.16c-.19-.51-.37-1-.58-1.5q-1-2.63-2.18-5.1a.13.13,0,0,0-.07-.08c-10.29-17.2-44.54-21.06-79.84-8.22-35.51,12.93-59.37,38.19-55.82,58a44.39,44.39,0,0,0,1.38,4.59c.17.66.4,1.31.64,2a72.62,72.62,0,0,0,136.47-49.67Zm-32.3,47.32L181,304.62a122,122,0,0,1-20,9.35c-34.22,12.46-67.1,8.26-73.53-9.41s16.06-42,50.29-54.45,67.07-8.23,73.48,9.4c3.8,10.44-2.47,23.23-15.36,34.53v18.61Z" transform="translate(-79.76 -237.66)"/><path d="M180.95,290v-.07l.12,0c11.07-8.43,16.9-18,14.18-25.48-4.36-12-28.84-14-54.66-4.61s-43.22,26.69-38.86,38.65,28.82,14,54.62,4.64a103,103,0,0,0,13.92-6.23l10.6,7.74.1,0V290Z" transform="translate(-79.76 -237.66)"/><path d="M319.55,303.69c-1.88,13.16-12.51,24.12-30.09,24.12-19.71,0-31.32-14.23-31.32-30.18s11.53-30.17,30.83-30.17c18.48,0,28.87,11.28,30.42,25.1H301.56c-1-5.4-5.07-9.65-12.1-9.65-9.16,0-13.9,7-13.9,14.72,0,8.34,5.32,14.72,14.23,14.72,6.3,0,10.71-3.93,11.78-8.67Z" transform="translate(-79.76 -237.66)"/><path d="M323.68,297.64c0-15.78,11.37-30.17,31-30.17s31.08,14.39,31.08,30.17-11.37,30.18-31.08,30.18S323.68,313.42,323.68,297.64Zm44.81,0c0-7.6-5.07-14.64-13.82-14.64s-13.82,7-13.82,14.64,5.15,14.64,13.82,14.64S368.49,305.24,368.49,297.64Z" transform="translate(-79.76 -237.66)"/><path d="M451.45,303.69c-1.88,13.16-12.51,24.12-30.09,24.12-19.71,0-31.32-14.23-31.32-30.18s11.53-30.17,30.83-30.17c18.48,0,28.87,11.28,30.42,25.1H433.46c-1-5.4-5.07-9.65-12.1-9.65-9.16,0-13.9,7-13.9,14.72,0,8.34,5.32,14.72,14.23,14.72,6.3,0,10.71-3.93,11.78-8.67Z" transform="translate(-79.76 -237.66)"/><path d="M455.58,297.64c0-15.78,11.37-30.17,31-30.17s31.08,14.39,31.08,30.17-11.37,30.18-31.08,30.18S455.58,313.42,455.58,297.64Zm44.81,0c0-7.6-5.07-14.64-13.82-14.64s-13.82,7-13.82,14.64,5.15,14.64,13.82,14.64S500.39,305.24,500.39,297.64Z" transform="translate(-79.76 -237.66)"/><path d="M524.8,269h27.48c13.08,0,21.51,9.82,21.51,21.34a21,21,0,0,1-10.47,18.48l11.45,17.42h-20L545,311.62h-3.19v14.64h-17Zm31.65,21.34c0-4.41-2.94-8.1-7.52-8.1h-7.11v16.19h7C553.42,298.46,556.44,294.78,556.44,290.36Z" transform="translate(-79.76 -237.66)"/><path d="M579,297.64c0-15.78,11.37-30.17,31-30.17s31.07,14.39,31.07,30.17S629.75,327.82,610,327.82,579,313.42,579,297.64Zm44.81,0c0-7.6-5.07-14.64-13.82-14.64s-13.82,7-13.82,14.64,5.15,14.64,13.82,14.64S623.86,305.24,623.86,297.64Z" transform="translate(-79.76 -237.66)"/><path d="M647.53,269h28c15.7,0,18.64,9.49,18.64,15.46a13.24,13.24,0,0,1-10,12.75c3.68.33,10.39,4.58,10.39,13.08,0,6-3,15.95-18.73,15.95H647.53Zm22.73,22.49c5.15,0,7-2.94,7-5.81,0-2.37-1.15-5.72-7-5.72h-5.65v11.53Zm-5.65,11.12v11.7h5.81c5.15,0,7-2.86,7-5.89,0-2.29-1.31-5.81-7-5.81Z" transform="translate(-79.76 -237.66)"/><path d="M700.06,297.64c0-15.78,11.37-30.17,31-30.17s31.08,14.39,31.08,30.17-11.37,30.18-31.08,30.18S700.06,313.42,700.06,297.64Zm44.81,0c0-7.6-5.07-14.64-13.82-14.64s-13.82,7-13.82,14.64,5.15,14.64,13.82,14.64S744.87,305.24,744.87,297.64Z" transform="translate(-79.76 -237.66)"/></svg>